<?xml version="1.0" encoding="iso-8859-1"?>
<!-- Generator: Adobe Illustrator 19.0.0, SVG Export Plug-In . SVG Version: 6.00 Build 0)  -->
<svg version="1.1" id="Capa_1" xmlns="http://www.w3.org/2000/svg" xmlns:xlink="http://www.w3.org/1999/xlink" x="0px" y="0px"
	 viewBox="0 0 512 512" style="enable-background:new 0 0 512 512;" xml:space="preserve">
<g>
	<path style="fill:#AAAAAA;" d="M75.685,497.568l-30.608-40.995c-0.479-0.725-1.082-1.385-1.819-1.934
		c-1.396-1.042-3.028-1.535-4.646-1.53c-1.617-0.004-3.25,0.488-4.646,1.53c-0.736,0.549-1.339,1.21-1.819,1.934L1.539,497.568
		c-2.559,3.428-1.855,8.281,1.573,10.841c1.391,1.038,3.016,1.54,4.628,1.54c2.361,0,4.692-1.075,6.213-3.113l24.659-33.029
		l24.659,33.029c1.521,2.038,3.852,3.113,6.213,3.113c1.612,0,3.237-0.501,4.628-1.54C77.54,505.849,78.244,500.996,75.685,497.568z
		"/>
	<path style="fill:#AAAAAA;" d="M458.198,497.568l-30.608-40.995c-0.479-0.725-1.082-1.385-1.819-1.934
		c-1.396-1.042-3.028-1.535-4.646-1.53c-1.617-0.004-3.25,0.488-4.646,1.53c-0.736,0.549-1.339,1.21-1.819,1.934l-30.608,40.995
		c-2.559,3.428-1.855,8.281,1.573,10.841c1.391,1.038,3.016,1.54,4.628,1.54c2.361,0,4.692-1.075,6.213-3.113l24.659-33.029
		l24.659,33.029c1.521,2.038,3.852,3.113,6.213,3.113c1.612,0,3.237-0.501,4.628-1.54
		C460.052,505.849,460.757,500.996,458.198,497.568z"/>
</g>
<path style="fill:#BEBEBE;" d="M24.371,90.773c-3.79,0-7.002-2.706-7.632-6.455c-0.341-2.034,0.124-4.09,1.322-5.773
	c1.198-1.694,2.985-2.809,5.019-3.15l120.767-20.458l12.176-45.316c0.898-3.377,3.976-5.732,7.467-5.732
	c0.682,0,1.353,0.093,2.014,0.269c2.003,0.537,3.677,1.818,4.709,3.604c1.033,1.797,1.301,3.883,0.764,5.887l-13.456,50.108
	c-0.785,2.912-3.212,5.122-6.186,5.628L25.682,90.66c0,0.01-0.01,0.01-0.01,0.01C25.237,90.742,24.805,90.773,24.371,90.773z"/>
<g>
	<path style="fill:#AAAAAA;" d="M142.401,504.298v-0.052V504.298c-0.155,0-0.32-0.01-0.475-0.021c-4.265-0.258-7.518-3.935-7.26-8.2
		l7.332-120.499c0.258-4.234,3.955-7.518,8.2-7.26c2.065,0.124,3.955,1.053,5.329,2.602c1.374,1.549,2.055,3.542,1.931,5.597
		l-7.332,120.499C149.877,501.097,146.48,504.298,142.401,504.298z"/>
	<path style="fill:#AAAAAA;" d="M351.746,504.298c-4.09,0-7.477-3.201-7.725-7.281l-7.332-120.499
		c-0.258-4.255,2.995-7.942,7.26-8.2c4.244-0.248,7.942,3.026,8.2,7.26l7.332,120.499c0.258,4.265-2.995,7.942-7.26,8.2
		C352.066,504.288,351.901,504.298,351.746,504.298z"/>
</g>
<path style="fill:#2476ED;" d="M227.394,131.339v73.933c0,2.851-2.312,5.164-5.164,5.164H117.357c-2.851,0-5.164-2.312-5.164-5.164
	v-73.933c0-2.851,2.312-5.164,5.164-5.164H222.23C225.082,126.175,227.394,128.487,227.394,131.339z"/>
<path style="fill:#0A66EA;" d="M227.395,131.339v73.933c0,2.85-2.313,5.164-5.164,5.164H117.358c-2.85,0-5.164-2.313-5.164-5.164
	v-33.626c10.059,4.554,21.212,7.095,32.965,7.095c34.514,0,63.926-21.904,75.079-52.566h1.993
	C225.082,126.175,227.395,128.488,227.395,131.339z"/>
<g>
	<rect x="142.847" y="126.178" style="fill:#97BFFD;" width="15.491" height="84.26"/>
	<rect x="181.243" y="126.178" style="fill:#97BFFD;" width="15.491" height="84.26"/>
</g>
<path style="fill:#AAAAAA;" d="M229.929,142.563H109.652c-2.005,0-3.63-1.626-3.63-3.63v-17.388c0-2.005,1.626-3.63,3.63-3.63
	h120.278c2.005,0,3.63,1.626,3.63,3.63v17.388C233.559,140.938,231.934,142.563,229.929,142.563z"/>
<path style="fill:#828282;" d="M233.56,121.549v17.381c0,2.003-1.621,3.635-3.635,3.635H109.654c-2.003,0-3.635-1.632-3.635-3.635
	v-6.248h103.831c2.003,0,3.635-1.632,3.635-3.635v-11.133h16.441C231.939,117.913,233.56,119.545,233.56,121.549z"/>
<path style="fill:#2476ED;" d="M381.952,131.339v73.933c0,2.851-2.312,5.164-5.164,5.164H271.915c-2.851,0-5.164-2.312-5.164-5.164
	v-73.933c0-2.851,2.312-5.164,5.164-5.164h104.874C379.64,126.175,381.952,128.487,381.952,131.339z"/>
<path style="fill:#0A66EA;" d="M381.953,131.339v73.933c0,2.85-2.313,5.164-5.164,5.164H271.916c-2.85,0-5.164-2.313-5.164-5.164
	v-34.689c10.616,5.226,22.555,8.159,35.185,8.159c34.514,0,63.916-21.894,75.079-52.556
	C379.764,126.299,381.953,128.561,381.953,131.339z"/>
<g>
	<rect x="297.405" y="126.178" style="fill:#97BFFD;" width="15.491" height="84.26"/>
	<rect x="335.812" y="126.178" style="fill:#97BFFD;" width="15.491" height="84.26"/>
</g>
<path style="fill:#AAAAAA;" d="M384.493,142.563H264.215c-2.005,0-3.63-1.626-3.63-3.63v-17.388c0-2.005,1.626-3.63,3.63-3.63
	h120.278c2.005,0,3.63,1.626,3.63,3.63v17.388C388.123,140.938,386.497,142.563,384.493,142.563z"/>
<path style="fill:#828282;" d="M388.119,121.549v17.381c0,2.003-1.621,3.635-3.625,3.635H264.212c-2.003,0-3.625-1.632-3.625-3.635
	v-6.248h103.831c2.003,0,3.625-1.632,3.625-3.635v-11.133h16.451C386.497,117.913,388.119,119.545,388.119,121.549z"/>
<path style="fill:#E3D000;" d="M168.54,265.239l-25.013,127.889c-0.547,2.799-3.259,4.624-6.058,4.076l-34.6-6.765l-15.202-2.974
	l-32.066-6.279L40.4,378.212l-34.609-6.765c-2.799-0.547-4.625-3.26-4.077-6.059l25.013-127.889
	c0.547-2.799,3.259-4.624,6.058-4.076l34.6,6.765l15.202,2.974l32.077,6.279l15.202,2.974l34.6,6.764
	C167.262,259.729,169.087,262.441,168.54,265.239z"/>
<path style="fill:#D2C100;" d="M159.896,309.412l-16.369,83.713c-0.547,2.799-3.263,4.627-6.062,4.079l-34.596-6.764l-15.202-2.974
	l-32.066-6.279l-15.202-2.974l-34.607-6.764c-2.799-0.547-4.627-3.263-4.079-6.062l7.012-35.836
	c18.176,8.468,38.448,13.198,59.826,13.198C103.354,342.749,135.224,330.211,159.896,309.412z"/>
<g>
	<path style="fill:#FFF79F;" d="M103.695,345.857c-0.496-0.093-0.991-0.145-1.497-0.145c-3.687,0-6.878,2.633-7.591,6.258
		l-6.94,35.495l15.202,2.974l6.94-35.495c0.093-0.485,0.145-0.971,0.145-1.466C109.974,349.771,107.34,346.57,103.695,345.857z
		 M114.662,249.442l-14.107,72.126c-0.392,2.034,0.021,4.09,1.177,5.814c1.157,1.714,2.902,2.871,4.936,3.274
		c0.496,0.093,1.002,0.145,1.497,0.145c3.687,0,6.878-2.633,7.591-6.258l14.107-72.126L114.662,249.442z"/>
	
		<rect x="-8.829" y="302.945" transform="matrix(-0.1919 0.9814 -0.9814 -0.1919 378.2043 309.9669)" style="fill:#FFF79F;" width="140.635" height="15.49"/>
</g>
<path style="fill:#AAAAAA;" d="M170.83,296.173L20.957,266.861c-1.967-0.385-3.25-2.292-2.866-4.259l6.503-33.252
	c0.385-1.967,2.292-3.25,4.259-2.866l149.874,29.312c1.967,0.385,3.25,2.292,2.866,4.259l-6.503,33.252
	C174.704,295.275,172.798,296.558,170.83,296.173z"/>
<path style="fill:#828282;" d="M181.594,260.058l-6.506,33.254c-0.382,1.962-2.293,3.243-4.255,2.861l-149.88-29.309
	c-1.962-0.392-3.243-2.293-2.861-4.265l1.673-8.582l133.811,26.18c1.962,0.382,3.873-0.898,4.255-2.871l4.823-24.672l16.069,3.139
	C180.695,256.185,181.976,258.086,181.594,260.058z"/>
<path style="fill:#E3D000;" d="M492.15,335.036c0.699,2.765-0.976,5.573-3.741,6.272l-34.175,8.639l-15.016,3.8l-31.684,8.014
	l-15.016,3.79l-34.185,8.648c-2.765,0.699-5.574-0.975-6.273-3.741l-22.988-90.926c-0.699-2.765,0.976-5.573,3.741-6.272
	l34.175-8.639l15.016-3.8l31.684-8.014l15.016-3.8l34.186-8.639c2.765-0.698,5.573,0.976,6.271,3.741L492.15,335.036z"/>
<path style="fill:#D2C100;" d="M488.407,341.313l-34.173,8.634l-15.016,3.8l-31.684,8.014l-15.016,3.79l-34.183,8.644
	c-2.768,0.702-5.577-0.971-6.279-3.738l-7.116-28.152c3.687,0.289,7.415,0.434,11.174,0.434c51.12,0,95.93-27.057,120.891-67.623
	l15.14,59.919C492.848,337.802,491.175,340.611,488.407,341.313z"/>
<g>
	<polygon style="fill:#FFF79F;" points="407.534,361.761 392.518,365.551 366.989,264.623 382.005,260.822 	"/>
	<polygon style="fill:#FFF79F;" points="454.234,349.947 439.218,353.747 413.689,252.808 428.705,249.008 	"/>
</g>
<path style="fill:#AAAAAA;" d="M474.182,262.463l-148.055,37.431c-1.944,0.492-3.917-0.686-4.409-2.629l-5.686-22.491
	c-0.492-1.944,0.686-3.917,2.629-4.409l148.055-37.431c1.944-0.492,3.917,0.686,4.409,2.629l5.686,22.491
	C477.303,259.998,476.126,261.972,474.182,262.463z"/>
<path style="fill:#828282;" d="M474.186,262.464L326.124,299.89c-1.942,0.496-3.914-0.682-4.41-2.623l-2.664-10.544l135.05-34.142
	c1.952-0.496,3.119-2.468,2.633-4.41l-3.026-11.949l13.012-3.284c1.942-0.496,3.914,0.682,4.41,2.623l5.68,22.493
	C477.305,259.996,476.128,261.969,474.186,262.464z"/>
<path style="fill:#F44545;" d="M343.216,200.088v130.31c0,2.851-2.312,5.164-5.164,5.164H156.085c-2.851,0-5.164-2.312-5.164-5.164
	v-130.31c0-2.851,2.312-5.164,5.164-5.164h181.967C340.903,194.924,343.216,197.236,343.216,200.088z"/>
<path style="fill:#D63030;" d="M343.216,202.752v127.645c0,2.85-2.313,5.164-5.164,5.164H156.085c-2.85,0-5.164-2.313-5.164-5.164
	v-36.218c15.997,5.876,33.295,9.078,51.327,9.078C267.568,303.257,323.077,261.235,343.216,202.752z"/>
<g>
	<rect x="207.279" y="194.927" style="fill:#FD9A9A;" width="15.491" height="140.637"/>
	<rect x="271.38" y="194.927" style="fill:#FD9A9A;" width="15.491" height="140.637"/>
</g>
<path style="fill:#AAAAAA;" d="M144.26,186.664h205.624c2.005,0,3.63,1.626,3.63,3.63v33.882c0,2.005-1.626,3.63-3.63,3.63H144.26
	c-2.005,0-3.63-1.626-3.63-3.63v-33.882C140.63,188.29,142.256,186.664,144.26,186.664z"/>
<path style="fill:#828282;" d="M353.512,190.297v33.874c0,2.014-1.621,3.635-3.625,3.635H144.26c-2.003,0-3.625-1.621-3.625-3.635
	v-11.085H329.8c2.014,0,3.635-1.632,3.635-3.635v-22.788h16.451C351.891,186.662,353.512,188.294,353.512,190.297z"/>
<circle style="fill:#9BCF1B;" cx="246.791" cy="386.498" r="110.925"/>
<path style="fill:#84B017;" d="M357.715,386.495c0,61.261-49.664,110.925-110.925,110.925c-37.829,0-71.227-18.93-91.252-47.846
	c18.331,13.384,40.906,21.285,65.341,21.285c61.261,0,110.925-49.664,110.925-110.925c0-23.433-7.27-45.172-19.673-63.079
	C339.766,317.023,357.715,349.668,357.715,386.495z"/>
<circle style="fill:#2476ED;" cx="246.791" cy="386.498" r="77.537"/>
<path style="fill:#0A66EA;" d="M324.327,386.495c0,42.817-34.72,77.537-77.537,77.537c-30.145,0-56.263-17.195-69.09-42.311
	c11.071,6.093,23.794,9.563,37.323,9.563c42.817,0,77.537-34.72,77.537-77.537c0-12.682-3.047-24.651-8.448-35.226
	C308.082,331.709,324.327,357.207,324.327,386.495z"/>
<circle style="fill:#F44545;" cx="246.791" cy="386.498" r="37.819"/>
<path style="fill:#D63030;" d="M284.608,386.495c0,20.892-16.937,37.819-37.819,37.819c-14.179,0-26.531-7.797-33.006-19.343
	c5.463,3.067,11.763,4.813,18.476,4.813c20.882,0,37.819-16.926,37.819-37.819c0-6.702-1.745-13.002-4.813-18.465
	C276.811,359.975,284.608,372.326,284.608,386.495z"/>
<path style="fill:#BEBEBE;" d="M421.125,509.947c-4.265,0-7.745-3.47-7.745-7.745V41.853c0-4.265,3.48-7.745,7.745-7.745
	c4.276,0,7.745,3.48,7.745,7.745v460.349C428.87,506.478,425.399,509.947,421.125,509.947z"/>
<path style="fill:#CDCDCD;" d="M38.612,509.947c-4.275,0-7.745-3.47-7.745-7.745V41.853c0-4.265,3.47-7.745,7.745-7.745
	c4.265,0,7.745,3.48,7.745,7.745v460.349C46.358,506.478,42.877,509.947,38.612,509.947z"/>
<g>
	<path style="fill:#E3D000;" d="M242.08,431.976L242.08,431.976c-1.25,0-2.437-0.289-3.542-0.867
		c-1.849-0.95-3.201-2.551-3.831-4.523c-0.63-1.973-0.454-4.069,0.496-5.907l15.047-29.195h-20.438
		c-2.685,0-5.215-1.415-6.609-3.707c-1.405-2.282-1.508-5.184-0.279-7.57l20.469-39.884v-0.01c1.332-2.592,3.976-4.203,6.888-4.203
		c1.239,0,2.427,0.289,3.532,0.857c3.8,1.952,5.308,6.63,3.356,10.431l-14.675,28.596h20.458c2.685,0,5.226,1.425,6.62,3.718
		c1.394,2.293,1.497,5.195,0.269,7.58l-20.871,40.483C247.637,430.365,244.992,431.976,242.08,431.976z"/>
	<path style="fill:#E3D000;" d="M329.821,81.685h-0.01c-3.8,0-7.002-2.716-7.632-6.465c-0.341-2.045,0.134-4.1,1.332-5.783
		c1.208-1.683,2.995-2.799,5.029-3.139l174.438-29.175c0.423-0.062,0.857-0.103,1.281-0.103c3.8,0,7.012,2.726,7.632,6.475
		c0.713,4.203-2.148,8.21-6.362,8.912L331.091,81.582C330.667,81.654,330.244,81.685,329.821,81.685z"/>
	<path style="fill:#E3D000;" d="M254.503,49.887L254.503,49.887c-0.475,0-0.96-0.041-1.425-0.134L79.352,17.419
		c-2.034-0.382-3.8-1.528-4.978-3.232c-1.167-1.714-1.601-3.769-1.219-5.804c0.682-3.666,3.873-6.331,7.601-6.331
		c0.475,0,0.96,0.041,1.425,0.134l173.726,32.345c2.034,0.372,3.8,1.518,4.967,3.232c1.177,1.704,1.611,3.759,1.229,5.794
		C261.423,47.223,258.222,49.887,254.503,49.887z"/>
	<path style="fill:#E3D000;" d="M250.372,71.255v-0.052V71.255c-0.475,0-0.96-0.052-1.425-0.134L75.221,38.775
		c-4.203-0.785-6.981-4.833-6.207-9.036c0.692-3.666,3.883-6.32,7.611-6.32c0.475,0,0.96,0.041,1.425,0.134l173.726,32.335
		c2.034,0.382,3.8,1.528,4.967,3.232c1.177,1.704,1.611,3.769,1.229,5.804C257.293,68.59,254.091,71.255,250.372,71.255z"/>
</g>
<g>
</g>
<g>
</g>
<g>
</g>
<g>
</g>
<g>
</g>
<g>
</g>
<g>
</g>
<g>
</g>
<g>
</g>
<g>
</g>
<g>
</g>
<g>
</g>
<g>
</g>
<g>
</g>
<g>
</g>
</svg>
