<svg id="Capa_1" enable-background="new 0 0 512.006 512.006" height="512" viewBox="0 0 512.006 512.006" width="512" xmlns="http://www.w3.org/2000/svg"><g><path d="m497.003 182.005h-482c-8.284 0-15 6.716-15 15v45c0 8.284 6.716 15 15 15h482c8.284 0 15-6.716 15-15v-45c0-8.284-6.716-15-15-15z"/><path d="m497.003 437.005h-482c-8.284 0-15 6.716-15 15v45c0 8.284 6.716 15 15 15h482c8.284 0 15-6.716 15-15v-45c0-8.284-6.716-15-15-15z"/><path d="m197.773 407.005h116.46l-58.23-116.459z"/><path d="m166.003 403.464 58.23-116.459h-116.46z"/><path d="m346.003 403.464 58.23-116.459h-116.46z"/><path d="m481.003 287.005h-43.23l-60 120h103.23z"/><path d="m31.003 287.005v120h103.23l-60-120z"/><path d="m8.295 28.421 142.063 71.031c-.225 1.821-.355 3.671-.355 5.552 0 24.813 20.187 45 45 45s45-20.187 45-45-20.187-45-45-45c-12.11 0-23.11 4.817-31.208 12.626l-142.084-71.042c-7.41-3.705-16.42-.701-20.124 6.708-3.705 7.41-.702 16.42 6.708 20.125z"/><path d="m317.003 150.005c24.813 0 45-20.187 45-45 0-1.881-.13-3.731-.355-5.552l142.063-71.031c7.41-3.705 10.413-12.715 6.708-20.125-3.704-7.409-12.712-10.413-20.124-6.708l-142.084 71.041c-8.098-7.808-19.098-12.626-31.208-12.626-24.813 0-45 20.187-45 45s20.187 45.001 45 45.001z"/></g></svg>